<svg id="Layer" height="512" viewBox="0 0 24 24" width="512" xmlns="http://www.w3.org/2000/svg"><path id="repeat" d="m4 12.5a4.483 4.483 0 0 0 .492 2.048 1 1 0 1 1 -1.784.9 6.566 6.566 0 0 1 -.708-2.948 6.219 6.219 0 0 1 6.5-6.5h6.086l-.293-.293a1 1 0 0 1 1.414-1.414l2 2a1 1 0 0 1 0 1.416l-2 2a1 1 0 0 1 -1.414-1.414l.293-.295h-6.086a4.218 4.218 0 0 0 -4.5 4.5zm17.292-2.952a1 1 0 1 0 -1.784.9 4.483 4.483 0 0 1 .492 2.052 4.218 4.218 0 0 1 -4.5 4.5h-6.086l.293-.293a1 1 0 0 0 -1.414-1.414l-2 2a1 1 0 0 0 0 1.414l2 2a1 1 0 0 0 1.414-1.414l-.293-.293h6.086a6.219 6.219 0 0 0 6.5-6.5 6.566 6.566 0 0 0 -.708-2.952z" fill="rgb(0,0,0)"/></svg>