<svg viewBox="0 0 32 32" xmlns="http://www.w3.org/2000/svg"><path d="m3 8a1 1 0 0 0 0 2h2a8.11 8.11 0 0 1 6 2.59l1.26 1.41a1 1 0 0 0 .74.32 1 1 0 0 0 .68-.27 1 1 0 0 0 .05-1.42l-1.3-1.39a10.13 10.13 0 0 0 -7.43-3.24z"/><path d="m26.46 5.05a1 1 0 0 0 -1.41 1.41l1.54 1.54h-.59a10.13 10.13 0 0 0 -7.4 3.23l-7.6 8.18a8.11 8.11 0 0 1 -6 2.59h-2a1 1 0 0 0 0 2h2a10.13 10.13 0 0 0 7.4-3.23l7.6-8.18a8.11 8.11 0 0 1 6-2.59h.62l-1.54 1.54a1 1 0 0 0 0 1.41 1 1 0 0 0 .71.29 1 1 0 0 0 .7-.29l3.25-3.24a1 1 0 0 0 0-1.42z"/><path d="m26.46 19.05a1 1 0 0 0 -1.41 1.41l1.54 1.54h-.59a8.11 8.11 0 0 1 -6-2.59l-1.27-1.41a1 1 0 0 0 -1.41 0 1 1 0 0 0 -.05 1.42l1.3 1.39a10.13 10.13 0 0 0 7.43 3.19h.62l-1.54 1.54a1 1 0 0 0 0 1.41 1 1 0 0 0 .71.29 1 1 0 0 0 .7-.29l3.25-3.24a1 1 0 0 0 0-1.42z"/></svg>